<svg id="Button_Icon" data-name="Button/Icon" xmlns="http://www.w3.org/2000/svg" xmlns:xlink="http://www.w3.org/1999/xlink" width="38" height="38" viewBox="0 0 38 38">
    <defs>
        <clipPath id="clip-path">
            <path id="Shape" d="M0,12H2c0,1.08,1.37,2,3,2s3-.92,3-2c0-1.1-1.04-1.5-3.24-2.03C2.64,9.44,0,8.78,0,6A4.22,4.22,0,0,1,3.5,2.18V0h3V2.18A4.22,4.22,0,0,1,10,6H8C8,4.92,6.63,4,5,4S2,4.92,2,6C2,7.1,3.04,7.5,5.24,8.03,7.36,8.56,10,9.22,10,12a4.22,4.22,0,0,1-3.5,3.82V18h-3V15.82A4.22,4.22,0,0,1,0,12Z" transform="translate(4)" fill="#fff"/>
        </clipPath>
    </defs>
    <g id="Button_Icon-2" data-name="Button/Icon">
        <rect id="Background_Color" data-name="Background Color" width="38" height="38" rx="12" fill="#fff" opacity="0.2"/>
        <g id="Icon_Currency" data-name="Icon/Currency" transform="translate(10 10)">
            <g id="组_83" data-name="组 83">
                <path id="Shape-2" data-name="Shape" d="M0,12H2c0,1.08,1.37,2,3,2s3-.92,3-2c0-1.1-1.04-1.5-3.24-2.03C2.64,9.44,0,8.78,0,6A4.22,4.22,0,0,1,3.5,2.18V0h3V2.18A4.22,4.22,0,0,1,10,6H8C8,4.92,6.63,4,5,4S2,4.92,2,6C2,7.1,3.04,7.5,5.24,8.03,7.36,8.56,10,9.22,10,12a4.22,4.22,0,0,1-3.5,3.82V18h-3V15.82A4.22,4.22,0,0,1,0,12Z" transform="translate(4)" fill="#fff"/>
            </g>
        </g>
    </g>
</svg>
