<svg id="Icon" xmlns="http://www.w3.org/2000/svg" xmlns:xlink="http://www.w3.org/1999/xlink" width="18" height="18" viewBox="0 0 18 18">
  <defs>
    <clipPath id="clip-path">
      <path id="Shape" d="M16,16H0V13c0-2.626,5.208-4,8-4s8,1.374,8,4v3ZM8,10.9c-2.974,0-6.1,1.457-6.1,2.1v1.1H14.1V13C14.1,12.357,10.974,10.9,8,10.9ZM8,8a4,4,0,1,1,4-4A4,4,0,0,1,8,8ZM8,2a2,2,0,1,0,2,2A2,2,0,0,0,8,2Z" fill="#1e1f20"/>
    </clipPath>
  </defs>
  <g id="组_6" data-name="组 6" transform="translate(1 1)">
    <path id="Shape-2" data-name="Shape" d="M16,16H0V13c0-2.626,5.208-4,8-4s8,1.374,8,4v3ZM8,10.9c-2.974,0-6.1,1.457-6.1,2.1v1.1H14.1V13C14.1,12.357,10.974,10.9,8,10.9ZM8,8a4,4,0,1,1,4-4A4,4,0,0,1,8,8ZM8,2a2,2,0,1,0,2,2A2,2,0,0,0,8,2Z" fill="white"/>
  </g>
</svg>
